<svg width="230" height="285" xmlns="http://www.w3.org/2000/svg" xmlns:xlink="http://www.w3.org/1999/xlink" xml:space="preserve" overflow="hidden"><defs><clipPath id="clip0"><rect x="365" y="361" width="230" height="285"/></clipPath></defs><g clip-path="url(#clip0)" transform="translate(-365 -361)"><path d="M191.174 158.262 191.174 158.262C189.64 153.881 185.698 151.143 181.098 151.143L174.143 151.143 174.143 25.1905C174.143 12.3674 163.966 2.19048 151.143 2.19048L27.381 2.19048C13.7671 2.19048 2.19048 13.7671 2.19048 27.381L2.19048 227.81C2.19048 240.843 14.1833 251.905 27.1071 251.905L152.198 251.905C153.52 251.905 154.684 252.982 154.585 254.301 154.481 255.688 153.322 256.286 151.964 256.286L102.131 256.286 140.19 278.19 227.81 278.19 191.174 158.262ZM89.8643 241.171C86.3606 241.171 83.732 238.544 83.7309 235.04 83.7299 231.705 86.5315 228.905 89.8665 228.905 93.3701 228.906 95.9976 231.534 95.9976 235.038 95.8881 238.543 93.369 241.171 89.8643 241.171ZM157.714 151.143 136.193 151.143C130.388 151.143 125.46 156.29 125.46 162.095L125.46 162.095C125.46 167.9 130.388 173.048 136.193 173.048L157.879 173.048 157.879 219.048 19.7143 219.048 19.7143 33.9524 157.714 33.9524 157.714 151.143ZM74.8672 82.5339 41.619 82.5339 41.619 49.2857 74.8672 49.2857 74.8672 82.5339ZM134.714 49.2857 134.714 82.5339 101.466 82.5339 101.466 49.2857 134.714 49.2857ZM41.619 109.133 74.8672 109.133 74.8672 142.381 41.619 142.381 41.619 109.133ZM94.8159 82.5339 94.8159 62.5852 88.1667 62.5852 88.1667 55.9349 94.8159 55.9349 94.8159 49.2857 81.5164 49.2857 81.5164 69.2344 88.1667 69.2344 88.1667 75.8836 81.5175 75.8836 81.5175 89.1831 88.1667 89.1831 88.1667 82.5339 94.8159 82.5339ZM41.619 89.1841 41.619 95.8333 48.2682 95.8333 48.2682 89.1841 41.619 89.1841ZM128.065 95.8333 121.416 95.8333 121.416 102.483 121.416 109.132 101.466 109.132 101.466 115.781 114.766 115.781 114.766 122.43 114.766 129.079 128.065 129.079 128.065 122.43 121.416 122.43 121.416 115.781 128.065 115.781 128.065 109.132 128.065 102.483 134.714 102.483 134.714 95.8333 134.714 89.1841 128.065 89.1841 128.065 95.8333ZM94.8159 89.1841 88.1667 89.1841 88.1667 95.8333 94.8159 95.8333 94.8159 89.1841ZM108.115 102.483 114.765 102.483 114.765 95.8333 114.765 89.1841 101.466 89.1841 101.466 95.8333 108.115 95.8333 108.115 102.483 108.115 102.483ZM48.2682 102.483 54.9174 102.483 54.9174 95.8333 48.2682 95.8333 48.2682 102.483ZM88.1667 95.8333 68.218 95.8333 68.218 89.1841 54.9185 89.1841 54.9185 95.8333 61.5677 95.8333 61.5677 102.483 81.5164 102.483 81.5164 109.132 88.1667 109.132 88.1667 102.483 88.1667 95.8333ZM101.466 102.483 94.8169 102.483 94.8169 109.132 101.466 109.132 101.466 102.483ZM94.8159 109.133 88.1667 109.133 88.1667 115.782 94.8159 115.782 94.8159 109.133ZM134.714 122.432 134.714 115.783 128.065 115.783 128.065 122.432 134.714 122.432ZM94.8159 122.432 101.465 122.432 101.465 115.783 94.8159 115.783 94.8159 122.432ZM94.8159 129.081 94.8159 122.432 88.1667 122.432 88.1667 115.783 81.5175 115.783 81.5175 122.432 81.5175 129.081 81.5175 135.731 88.1667 135.731 88.1667 129.081 94.8159 129.081ZM108.115 129.081 108.115 122.432 101.466 122.432 101.466 129.081 108.115 129.081ZM108.115 135.732 88.1667 135.732 88.1667 142.381 114.766 142.381 114.766 135.732 114.766 129.083 108.116 129.083 108.115 135.732 108.115 135.732ZM134.714 135.732 134.714 129.083 128.065 129.083 128.065 135.732 134.714 135.732ZM121.415 142.381 128.064 142.381 128.064 135.732 121.415 135.732 121.415 142.381Z" fill="#FFFFFF" transform="matrix(1 0 0 1.01647 365 361)"/></g></svg>